{"title":"Bruce Almighty 2003 DVDrip English Klam","uid":7122653,"size":1890982268,"categoryP":"video","categoryS":"movies","magnet":"?xt=urn:btih:d152a78376e23f9ecbc4dbb84e7e43d49c1699b2&amp;dn=Bruce+Almighty+2003+DVDrip+English+Klam&amp;tr=udp%3A%2F%2Ftracker.openbittorrent.com%3A80&amp;tr=udp%3A%2F%2Fopen.demonii.com%3A1337&amp;tr=udp%3A%2F%2Ftracker.coppersurfer.tk%3A6969&amp;tr=udp%3A%2F%2Fexodus.desync.com%3A6969","seeders":0,"leechers":1,"uploader":"Klambake","files":-1,"time":1332415929,"description":"With: Jim Carrey, Jennifer Aniston and Morgan Freeman\n\nBruce Nolan (Carrey) is een nieuwsverslaggever met ambitie, maar ziet de rest van de wereld zich hogerop werken terwijl hijzelf achterblijft in het middelmatige. Na wederom een dag vol tegenslagen verwijt Bruce God nalatigheid, omdat Hij nooit naar hem luistert. God hoort dit blijkbaar wel en geeft Bruce Zijn krachten onder het motto: kun jij het beter? Deze taak blijkt echter best lastig te zijn.\n\nA guy who complains about God too often is given almighty powers to teach him how difficult it is to run the world.\n\n------------------------ Dutch Friends ------------------------\n---------------------------------------------------------------\n- Bezoek ook eens mijn vrienden op: &lt;a href=&quot; http://www.Film-Test.nl&quot; rel=&quot;nofollow&quot; target=&quot;_NEW&quot;&gt; http://www.Film-Test.nl&lt;/a&gt; --\n----- voor mijn Nederlandse Sync. ondertitels ---- en meer ----\n------- http://www.Film-Test.nl ---- voor Films en meer -------\n---------------------------------------------------------------\n\nGeneral:\n\nComplete name                    : Bruce AlmightyBruce Almighty.avi\nFormat                           : AVI\nFormat/Info                      : Audio Video Interleave\nFile size                        : 1.76 GiB\nDuration                         : 1h 36mn\nOverall bit rate                 : 2 600 Kbps\n\nVideo:\n\nFormat                           : MPEG-4 Visual\nFormat profile                   : Simple@L3\nFormat settings, BVOP            : No\nFormat settings, QPel            : No\nFormat settings, GMC             : No warppoints\nFormat settings, Matrix          : Default (H.263)\nCodec ID                         : XVID\nCodec ID/Hint                    : XviD\nDuration                         : 1h 36mn\nBit rate                         : 2 141 Kbps\nWidth                            : 652 pixels\nHeight                           : 352 pixels\nDisplay aspect ratio             : 1.852\nFrame rate                       : 25.000 fps\nColor space                      : YUV\nChroma subsampling               : 4:2:0\nBit depth                        : 8 bits\nScan type                        : Progressive\nCompression mode                 : Lossy\nBits/(Pixel*Frame)               : 0.373\nStream size                      : 1.45 GiB (82%)\nWriting library                  : XviD 1.1.2 (UTC 2006-11-01)\n\nAudio:\n\nFormat                           : AC-3\nFormat/Info                      : Audio Coding 3\nMode extension                   : CM (complete main)\nCodec ID                         : 2000\nDuration                         : 1h 36mn\nBit rate mode                    : Constant\nBit rate                         : 448 Kbps\nChannel(s)                       : 6 channels\nChannel positions                : Front: L C R, Side: L R, LFE\nSampling rate                    : 48.0 KHz\nBit depth                        : 16 bits\nCompression mode                 : Lossy\nStream size                      : 311 MiB (17%)\nAlignment                        : Aligned on interleaves\nInterleave, duration             : 32 ms (0.80 video frame)\n\n\n","torrent":{"xt":"urn:btih:d152a78376e23f9ecbc4dbb84e7e43d49c1699b2","amp;dn":"Bruce+Almighty+2003+DVDrip+English+Klam","amp;tr":["udp%3A%2F%2Ftracker.openbittorrent.com%3A80","udp%3A%2F%2Fopen.demonii.com%3A1337","udp%3A%2F%2Ftracker.coppersurfer.tk%3A6969","udp%3A%2F%2Fexodus.desync.com%3A6969"],"infoHash":"d152a78376e23f9ecbc4dbb84e7e43d49c1699b2","infoHashBuffer":{"type":"Buffer","data":[209,82,167,131,118,226,63,158,203,196,219,184,78,126,67,212,156,22,153,178]},"announce":[],"urlList":[]}}